<svg xmlns="http://www.w3.org/2000/svg" xmlns:xlink="http://www.w3.org/1999/xlink" width="160" zoomAndPan="magnify" viewBox="0 0 120 119.999999" height="160" preserveAspectRatio="xMidYMid meet" version="1.2"><defs><clipPath id="55497ac531"><path d="M 0 0 L 119.875 0 L 119.875 119.875 L 0 119.875 Z M 0 0 "/></clipPath><clipPath id="ba35aacfef"><path d="M 17.25 0 L 102.625 0 C 107.199219 0 111.589844 1.816406 114.824219 5.050781 C 118.058594 8.289062 119.875 12.675781 119.875 17.25 L 119.875 102.625 C 119.875 107.199219 118.058594 111.589844 114.824219 114.824219 C 111.589844 118.058594 107.199219 119.875 102.625 119.875 L 17.25 119.875 C 12.675781 119.875 8.289062 118.058594 5.050781 114.824219 C 1.816406 111.589844 0 107.199219 0 102.625 L 0 17.25 C 0 12.675781 1.816406 8.289062 5.050781 5.050781 C 8.289062 1.816406 12.675781 0 17.25 0 Z M 17.25 0 "/></clipPath><clipPath id="9e258462ea"><path d="M 93.523438 14.992188 L 108.195312 14.992188 L 108.195312 104.871094 L 93.523438 104.871094 Z M 93.523438 14.992188 "/></clipPath><clipPath id="8902e2e631"><path d="M 100.859375 104.871094 C 98.914062 104.871094 97.046875 104.097656 95.671875 102.722656 C 94.296875 101.347656 93.523438 99.480469 93.523438 97.535156 L 93.523438 22.335938 C 93.523438 20.386719 94.296875 18.523438 95.671875 17.144531 C 97.046875 15.769531 98.914062 14.996094 100.859375 14.996094 C 102.804688 14.996094 104.671875 15.769531 106.046875 17.144531 C 107.421875 18.523438 108.195312 20.386719 108.195312 22.335938 L 108.195312 97.535156 C 108.195312 99.480469 107.421875 101.347656 106.046875 102.722656 C 104.671875 104.097656 102.804688 104.871094 100.859375 104.871094 Z M 100.859375 104.871094 "/></clipPath><clipPath id="64f96f5ead"><path d="M 11.574219 14.992188 L 26.25 14.992188 L 26.25 104.871094 L 11.574219 104.871094 Z M 11.574219 14.992188 "/></clipPath><clipPath id="adb6938b59"><path d="M 18.910156 104.871094 C 16.964844 104.871094 15.097656 104.097656 13.722656 102.722656 C 12.347656 101.347656 11.574219 99.480469 11.574219 97.535156 L 11.574219 22.335938 C 11.574219 20.386719 12.347656 18.523438 13.722656 17.144531 C 15.097656 15.769531 16.964844 14.996094 18.910156 14.996094 C 20.855469 14.996094 22.722656 15.769531 24.097656 17.144531 C 25.476562 18.523438 26.25 20.386719 26.25 22.335938 L 26.25 97.535156 C 26.25 99.480469 25.476562 101.347656 24.097656 102.722656 C 22.722656 104.097656 20.855469 104.871094 18.910156 104.871094 Z M 18.910156 104.871094 "/></clipPath><clipPath id="fdf3582fab"><path d="M 52.597656 22.332031 L 67.273438 22.332031 L 67.273438 104.871094 L 52.597656 104.871094 Z M 52.597656 22.332031 "/></clipPath><clipPath id="4ca38bde77"><path d="M 59.9375 104.871094 C 57.988281 104.871094 56.125 104.101562 54.746094 102.722656 C 53.371094 101.347656 52.597656 99.480469 52.597656 97.535156 L 52.597656 29.671875 C 52.597656 27.726562 53.371094 25.859375 54.746094 24.484375 C 56.125 23.109375 57.988281 22.335938 59.9375 22.335938 C 61.882812 22.335938 63.746094 23.109375 65.125 24.484375 C 66.5 25.859375 67.273438 27.726562 67.273438 29.671875 L 67.273438 97.535156 C 67.273438 99.480469 66.5 101.347656 65.125 102.722656 C 63.746094 104.101562 61.882812 104.871094 59.9375 104.871094 Z M 59.9375 104.871094 "/></clipPath><clipPath id="a422ddf804"><path d="M 11.554688 14.675781 L 108.195312 14.675781 L 108.195312 29.351562 L 11.554688 29.351562 Z M 11.554688 14.675781 "/></clipPath><clipPath id="c55c5be66e"><path d="M 108.195312 22.015625 C 108.195312 23.960938 107.425781 25.828125 106.046875 27.203125 C 104.671875 28.578125 102.804688 29.351562 100.859375 29.351562 L 18.910156 29.351562 C 16.964844 29.351562 15.097656 28.578125 13.722656 27.203125 C 12.347656 25.828125 11.574219 23.960938 11.574219 22.015625 C 11.574219 20.070312 12.347656 18.203125 13.722656 16.828125 C 15.097656 15.449219 16.964844 14.675781 18.910156 14.675781 L 100.859375 14.675781 C 102.804688 14.675781 104.671875 15.449219 106.046875 16.828125 C 107.425781 18.203125 108.195312 20.070312 108.195312 22.015625 Z M 108.195312 22.015625 "/></clipPath><clipPath id="7f2f59e963"><path d="M 11.605469 52.601562 L 108.246094 52.601562 L 108.246094 67.273438 L 11.605469 67.273438 Z M 11.605469 52.601562 "/></clipPath><clipPath id="44aba1051d"><path d="M 108.246094 59.9375 C 108.246094 61.882812 107.472656 63.75 106.097656 65.125 C 104.722656 66.503906 102.855469 67.273438 100.910156 67.273438 L 18.960938 67.273438 C 17.015625 67.273438 15.148438 66.503906 13.773438 65.125 C 12.398438 63.75 11.625 61.882812 11.625 59.9375 C 11.625 57.992188 12.398438 56.125 13.773438 54.75 C 15.148438 53.375 17.015625 52.601562 18.960938 52.601562 L 100.910156 52.601562 C 102.855469 52.601562 104.722656 53.375 106.097656 54.75 C 107.472656 56.125 108.246094 57.992188 108.246094 59.9375 Z M 108.246094 59.9375 "/></clipPath><clipPath id="c20e422b2b"><path d="M 52.585938 90.199219 L 108.246094 90.199219 L 108.246094 104.871094 L 52.585938 104.871094 Z M 52.585938 90.199219 "/></clipPath><clipPath id="3488c82390"><path d="M 108.246094 97.535156 C 108.246094 99.480469 107.472656 101.347656 106.09375 102.722656 C 104.71875 104.097656 102.851562 104.871094 100.90625 104.871094 L 59.933594 104.871094 C 57.988281 104.871094 56.121094 104.097656 54.746094 102.722656 C 53.367188 101.347656 52.597656 99.480469 52.597656 97.535156 C 52.597656 95.589844 53.367188 93.722656 54.746094 92.347656 C 56.121094 90.972656 57.988281 90.199219 59.933594 90.199219 L 100.90625 90.199219 C 102.851562 90.199219 104.71875 90.972656 106.09375 92.347656 C 107.472656 93.722656 108.246094 95.589844 108.246094 97.535156 Z M 108.246094 97.535156 "/></clipPath></defs><g id="70a2102176"><g clip-rule="nonzero" clip-path="url(#55497ac531)"><g clip-rule="nonzero" clip-path="url(#ba35aacfef)"><path style=" stroke:none;fill-rule:nonzero;fill:#0097b2;fill-opacity:1;" d="M 0 0 L 119.875 0 L 119.875 119.875 L 0 119.875 Z M 0 0 "/></g></g><g clip-rule="nonzero" clip-path="url(#9e258462ea)"><g clip-rule="nonzero" clip-path="url(#8902e2e631)"><path style=" stroke:none;fill-rule:nonzero;fill:#f5fff9;fill-opacity:1;" d="M 108.195312 104.871094 L 93.523438 104.871094 L 93.523438 14.992188 L 108.195312 14.992188 Z M 108.195312 104.871094 "/></g></g><g clip-rule="nonzero" clip-path="url(#64f96f5ead)"><g clip-rule="nonzero" clip-path="url(#adb6938b59)"><path style=" stroke:none;fill-rule:nonzero;fill:#f5fff9;fill-opacity:1;" d="M 26.25 104.871094 L 11.574219 104.871094 L 11.574219 14.992188 L 26.25 14.992188 Z M 26.25 104.871094 "/></g></g><g clip-rule="nonzero" clip-path="url(#fdf3582fab)"><g clip-rule="nonzero" clip-path="url(#4ca38bde77)"><path style=" stroke:none;fill-rule:nonzero;fill:#f5fff9;fill-opacity:1;" d="M 67.273438 104.871094 L 52.597656 104.871094 L 52.597656 22.332031 L 67.273438 22.332031 Z M 67.273438 104.871094 "/></g></g><g clip-rule="nonzero" clip-path="url(#a422ddf804)"><g clip-rule="nonzero" clip-path="url(#c55c5be66e)"><path style=" stroke:none;fill-rule:nonzero;fill:#f5fff9;fill-opacity:1;" d="M 108.195312 14.675781 L 108.195312 29.351562 L 11.554688 29.351562 L 11.554688 14.675781 Z M 108.195312 14.675781 "/></g></g><g clip-rule="nonzero" clip-path="url(#7f2f59e963)"><g clip-rule="nonzero" clip-path="url(#44aba1051d)"><path style=" stroke:none;fill-rule:nonzero;fill:#f5fff9;fill-opacity:1;" d="M 108.246094 52.601562 L 108.246094 67.273438 L 11.605469 67.273438 L 11.605469 52.601562 Z M 108.246094 52.601562 "/></g></g><g clip-rule="nonzero" clip-path="url(#c20e422b2b)"><g clip-rule="nonzero" clip-path="url(#3488c82390)"><path style=" stroke:none;fill-rule:nonzero;fill:#f5fff9;fill-opacity:1;" d="M 108.246094 90.199219 L 108.246094 104.871094 L 52.585938 104.871094 L 52.585938 90.199219 Z M 108.246094 90.199219 "/></g></g></g></svg>